<?xml version="1.0" standalone="no"?>
<!DOCTYPE svg PUBLIC "-//W3C//DTD SVG 20010904//EN"
 "http://www.w3.org/TR/2001/REC-SVG-20010904/DTD/svg10.dtd">
<svg version="1.0" xmlns="http://www.w3.org/2000/svg"
 width="492.000000pt" height="492.000000pt" viewBox="0 0 492.000000 492.000000"
 preserveAspectRatio="xMidYMid meet">
<metadata>
Created by potrace 1.14, written by Peter Selinger 2001-2017
</metadata>
<g transform="translate(0.000000,492.000000) scale(0.100000,-0.100000)"
fill="#000000" stroke="none">
<path d="M0 4735 l0 -185 92 6 c51 3 95 7 97 9 5 6 1 234 -5 298 -5 47 -10 57
-25 57 -14 0 -19 -7 -19 -30 0 -16 -3 -31 -7 -31 -61 -11 -83 -1 -83 37 0 19
-5 24 -25 24 l-25 0 0 -185z m151 -25 c7 -105 0 -130 -36 -130 -53 0 -55 4
-55 122 l0 109 43 -3 42 -3 6 -95z"/>
<path d="M754 4873 c3 -27 8 -101 12 -167 3 -65 8 -125 11 -134 5 -13 27 -14
152 -8 100 5 150 11 159 20 20 19 6 336 -14 336 -8 0 -14 -11 -14 -25 0 -28
-25 -45 -62 -41 -36 4 -48 14 -48 42 0 19 -5 24 -25 24 -20 0 -25 -5 -25 -25
0 -27 -22 -41 -61 -39 -37 2 -49 12 -49 40 0 17 -5 24 -20 24 -19 0 -20 -5
-16 -47z m147 -73 c4 -14 7 -62 8 -108 1 -80 0 -83 -25 -92 -32 -12 -55 -12
-74 0 -16 10 -28 158 -16 206 6 23 11 25 53 22 41 -3 48 -7 54 -28z m160 -5
c4 -16 7 -65 8 -108 1 -72 -1 -78 -21 -86 -13 -5 -36 -8 -53 -7 -36 1 -43 21
-44 128 -1 104 1 110 58 106 42 -3 46 -6 52 -33z"/>
<path d="M1691 4773 c0 -80 5 -157 10 -169 8 -23 10 -24 163 -21 144 2 156 3
164 22 15 32 2 315 -14 315 -7 0 -16 -9 -19 -20 -5 -16 -15 -20 -52 -20 -36 0
-46 4 -50 20 -7 27 -45 26 -58 -2 -17 -37 -105 -35 -105 3 0 12 -7 19 -20 19
-20 0 -21 -5 -19 -147z m302 70 c4 -2 7 -53 7 -113 l0 -109 -37 -7 c-65 -12
-80 13 -82 137 -1 65 9 92 39 102 14 5 57 -1 73 -10z m-151 -97 c9 -125 3
-138 -60 -134 l-47 3 -3 104 c-1 58 0 111 3 118 3 10 19 13 52 11 l48 -3 7
-99z"/>
<path d="M2615 4780 c3 -74 8 -143 11 -152 6 -22 23 -24 182 -20 126 3 133 4
141 25 5 12 6 82 3 155 l-5 133 -169 -3 -170 -2 7 -136z m283 102 c8 -6 13
-43 15 -118 l2 -109 -44 -3 c-28 -2 -47 1 -52 10 -5 7 -9 57 -9 110 0 82 3 99
18 107 21 12 52 14 70 3z m-144 -110 c10 -119 3 -135 -53 -130 -43 4 -49 19
-50 134 -1 92 7 106 59 102 l35 -3 9 -103z"/>
<path d="M3538 4908 c-5 -15 1 -247 7 -265 3 -9 43 -11 157 -7 84 3 159 7 166
9 9 3 12 40 12 140 l0 135 -169 0 c-125 0 -170 -3 -173 -12z m304 -102 c9
-125 3 -138 -60 -134 l-47 3 -3 104 c-3 121 3 133 62 129 l41 -3 7 -99z m-167
84 c3 -5 9 -54 12 -109 6 -94 5 -99 -16 -110 -12 -7 -36 -11 -54 -9 l-32 3 -3
109 c-2 81 1 112 10 118 18 11 76 10 83 -2z"/>
<path d="M4462 4793 l3 -128 160 -2 c139 -2 162 0 173 14 8 11 12 55 12 130 0
106 -1 113 -20 113 -19 0 -20 -7 -20 -105 0 -101 -1 -106 -23 -116 -15 -7 -36
-7 -58 -2 l-34 9 -3 107 c-3 103 -4 107 -25 107 -21 0 -22 -2 -19 -101 4 -115
-3 -129 -57 -129 -60 0 -63 5 -59 124 3 96 1 106 -15 106 -16 0 -17 -11 -15
-127z"/>
<path d="M558 4523 c7 -3 16 -2 19 1 4 3 -2 6 -13 5 -11 0 -14 -3 -6 -6z"/>
<path d="M1863 4293 c9 -2 25 -2 35 0 9 3 1 5 -18 5 -19 0 -27 -2 -17 -5z"/>
<path d="M913 4283 c9 -2 23 -2 30 0 6 3 -1 5 -18 5 -16 0 -22 -2 -12 -5z"/>
<path d="M2160 4193 c-64 -12 -120 -85 -120 -156 0 -42 9 -50 80 -72 70 -23
81 -32 56 -51 -28 -20 -101 -18 -134 4 -24 17 -42 18 -177 13 l-150 -6 4 -165
c2 -91 6 -205 10 -255 l6 -90 107 -3 106 -3 6 -47 c4 -26 8 -63 9 -83 5 -47
11 -55 55 -69 50 -17 58 -26 28 -34 -16 -4 -38 0 -56 9 -34 18 -83 19 -113 4
-38 -20 -67 -52 -67 -75 0 -12 -7 -24 -15 -28 -19 -7 -20 -79 -2 -94 22 -19
163 -26 209 -11 38 12 41 12 59 -12 10 -13 19 -27 19 -31 0 -7 -272 -16 -302
-9 -24 5 -30 31 -19 80 9 41 -2 58 -14 22 -3 -11 -11 -18 -18 -15 -7 2 -18
-10 -26 -27 l-13 -30 -27 25 c-14 14 -34 39 -44 56 l-18 30 48 1 c64 2 68 2
68 13 0 5 -28 8 -62 7 l-61 -2 -21 46 c-19 44 -29 74 -46 149 -5 26 -4 28 17
23 20 -6 19 -3 -7 18 -35 29 -32 30 25 10 24 -8 45 -14 46 -12 2 2 -22 17 -54
33 -31 17 -58 38 -60 47 -3 15 2 14 54 -3 31 -11 64 -25 73 -32 9 -6 7 -2 -4
10 -11 12 -45 30 -75 40 -58 20 -71 36 -85 100 l-7 34 32 -17 c40 -21 56 -15
76 29 16 33 16 36 -5 70 -13 20 -29 36 -37 36 -8 0 -17 7 -20 15 -4 8 -12 15
-19 15 -7 0 -18 7 -25 15 -7 8 -16 13 -20 10 -11 -7 -33 42 -27 59 4 9 16 16
27 16 24 0 34 21 26 54 -4 17 -17 28 -43 36 -21 7 -45 19 -54 26 -11 10 -18
11 -26 3 -8 -8 -17 -5 -33 11 -17 17 -29 21 -55 16 -19 -4 -36 -2 -40 4 -3 5
-13 10 -22 10 -9 0 -22 8 -29 18 -12 15 -13 13 -14 -22 l0 -39 -22 20 c-13 11
-38 23 -55 27 -86 16 -90 18 -106 49 -10 21 -16 26 -16 15 -1 -23 -7 -23 -39
2 -29 24 -77 22 -129 -5 -18 -9 -38 -13 -43 -10 -6 4 -21 0 -34 -8 -17 -12
-26 -13 -35 -4 -8 8 -11 3 -11 -22 0 -20 -7 -39 -16 -46 -13 -9 -14 -16 -7
-31 13 -24 6 -45 -13 -37 -8 3 -14 0 -14 -6 0 -6 4 -11 10 -11 5 0 7 -8 4 -17
-4 -12 1 -9 14 7 11 13 19 27 16 31 -2 4 3 9 11 13 8 3 15 12 15 20 0 25 45
29 102 11 57 -19 101 -53 124 -97 20 -38 17 -47 -6 -18 l-20 25 0 -27 c0 -34
-24 -37 -55 -8 -20 18 -22 19 -21 3 1 -10 -3 -19 -8 -20 -5 -1 -12 -6 -15 -11
-3 -6 -26 -12 -50 -13 -31 -3 -46 1 -55 13 -14 20 -56 20 -56 1 0 -7 -4 -13
-10 -13 -5 0 -7 -6 -4 -14 3 -7 -2 -16 -10 -19 -9 -4 -16 -15 -16 -25 0 -10
-4 -22 -10 -28 -6 -6 -7 -43 -1 -104 5 -52 5 -102 1 -110 -4 -8 -10 -42 -14
-75 -9 -78 -22 -159 -35 -215 -25 -110 -50 -207 -60 -233 -6 -16 -11 -42 -11
-59 0 -17 -7 -39 -15 -48 -22 -24 -41 -109 -53 -230 -18 -175 -12 -211 57
-390 29 -77 49 -101 113 -135 30 -16 91 -57 134 -90 43 -33 98 -73 121 -89 24
-16 40 -32 37 -37 -9 -16 -26 -10 -46 17 -11 14 -27 23 -34 20 -14 -6 -70 44
-90 79 -8 15 -15 17 -25 10 -9 -6 -115 -9 -281 -7 -213 2 -266 6 -262 16 3 7
-2 19 -11 26 -21 17 -70 -3 -61 -25 3 -9 0 -15 -9 -15 -13 0 -15 -66 -15 -490
l0 -490 385 1 c212 1 389 -1 392 -5 4 -4 1 -11 -7 -16 -17 -11 499 -6 592 5
65 8 74 0 80 -75 l3 -45 -95 -6 c-52 -4 -300 -8 -550 -9 -250 -1 -475 -4 -500
-5 -25 -1 -102 -3 -172 -5 l-128 -2 0 -101 0 -102 182 0 c181 0 183 0 186 -22
2 -12 11 -24 20 -27 27 -9 174 2 185 13 14 14 67 14 67 0 0 -13 40 -5 83 16
15 8 35 11 43 8 9 -3 26 0 39 7 15 8 42 11 72 7 26 -3 55 -1 64 3 10 6 42 3
83 -7 64 -16 69 -16 103 2 65 35 207 24 243 -19 16 -20 34 -20 50 -1 10 12 10
15 -1 15 -11 0 -11 2 0 9 10 7 19 4 27 -7 15 -20 10 -233 -8 -351 -10 -67 -14
-74 -40 -83 -31 -11 -28 -33 4 -22 21 6 21 7 2 -128 l-6 -38 995 0 994 0 7 61
c9 79 14 89 41 89 21 0 25 -8 41 -75 l18 -75 213 0 214 0 -6 48 c-4 26 -13 57
-21 69 -8 12 -14 31 -14 42 0 15 -5 19 -16 14 -13 -5 -15 -2 -9 16 4 13 2 28
-6 37 -9 11 -8 18 7 35 17 19 17 21 1 48 -9 16 -17 40 -17 53 0 12 -6 34 -13
48 -8 14 -17 41 -20 60 -4 18 -23 66 -42 106 -19 40 -35 79 -35 86 0 8 -16 46
-35 85 -19 39 -35 78 -35 85 0 8 -5 19 -10 24 -15 15 -16 222 -2 265 13 37 11
116 -3 138 -4 7 -4 40 -1 73 6 45 4 58 -5 53 -9 -6 -10 6 -5 46 10 82 26 334
27 424 0 67 2 76 11 55 6 -14 23 -51 36 -83 l26 -59 125 7 c69 4 131 11 136
16 6 4 20 8 30 8 11 0 38 4 60 9 70 18 484 26 549 11 31 -7 59 -16 62 -20 6
-10 -32 -19 -71 -17 -61 4 -188 -2 -182 -9 4 -3 89 -5 189 -4 101 1 207 -3
236 -7 l52 -9 -1 431 c0 360 -3 425 -13 396 l-13 -35 -17 33 c-22 42 -65 61
-83 36 -7 -10 -13 -21 -13 -26 0 -12 -28 -10 -50 4 -16 10 -24 10 -41 0 -12
-8 -25 -10 -29 -5 -4 4 -13 42 -19 83 -14 86 -32 115 -50 81 -7 -13 -21 -21
-37 -21 -24 0 -24 1 -8 25 16 24 15 27 -1 45 -23 25 -106 53 -138 45 -33 -9
-80 -58 -75 -81 1 -10 24 -29 49 -43 26 -14 62 -36 80 -48 34 -23 69 -22 97 0
10 8 16 7 23 -4 14 -22 11 -56 -6 -63 -19 -7 -62 9 -67 25 -3 9 -9 9 -27 -1
-13 -6 -35 -9 -50 -6 -14 4 -39 9 -56 11 -41 6 -107 27 -122 38 -9 6 -18 5
-29 -4 -9 -7 -51 -15 -100 -17 l-85 -5 -33 39 c-29 34 -35 37 -50 25 -9 -7
-16 -23 -16 -34 l0 -20 -22 20 c-37 33 -45 34 -85 17 -21 -9 -51 -16 -67 -14
-16 1 -40 -4 -53 -11 -18 -10 -26 -10 -35 -1 -18 18 -46 14 -58 -8 -22 -42
-43 -42 -108 0 -62 40 -209 110 -233 110 -7 0 -4 9 9 23 21 22 21 23 3 53 -26
43 -81 67 -134 59 -70 -11 -76 -14 -83 -51 -3 -19 -12 -34 -20 -34 -7 0 -21
-15 -30 -32 -10 -18 -29 -51 -43 -72 l-26 -40 -7 60 c-3 35 -2 64 4 71 12 15
2 61 -17 83 -41 45 -55 57 -86 75 -87 52 -102 63 -115 86 -20 36 -18 38 44 36
49 -2 63 2 88 24 25 20 29 29 23 48 -8 20 -6 22 14 15 31 -9 29 -9 55 0 18 6
21 12 16 34 -4 15 -11 31 -15 37 -5 5 -9 17 -9 28 0 25 -71 94 -107 104 -15 4
-63 7 -105 5 -160 -5 -196 -5 -328 3 l-135 8 -32 -41 c-18 -23 -33 -45 -33
-50 0 -6 -11 -20 -25 -33 -44 -42 -27 -118 27 -119 9 0 24 -10 32 -21 10 -14
34 -25 73 -33 46 -9 59 -16 61 -32 2 -16 -9 -29 -46 -53 -27 -17 -56 -31 -64
-31 -29 0 -96 -58 -103 -89 -7 -33 -26 -52 -33 -33 -2 7 -10 12 -18 12 -10 0
-14 12 -14 39 0 51 -16 92 -38 98 -17 4 -46 73 -31 73 5 0 16 -14 25 -32 9
-18 23 -38 30 -46 8 -7 14 -18 14 -23 0 -6 4 -8 9 -4 6 3 14 -2 19 -11 7 -13
9 -1 8 38 0 31 -5 54 -10 51 -4 -3 -6 50 -4 118 3 130 2 125 70 266 20 41 45
50 35 12 -3 -11 -1 -19 4 -19 5 0 9 -6 9 -14 0 -24 38 -7 44 20 4 13 13 24 20
24 8 0 22 12 32 28 21 32 63 67 82 67 7 0 17 6 21 13 4 8 28 16 52 19 24 3 49
12 56 20 7 10 22 14 38 11 19 -4 25 -1 25 12 0 21 37 30 117 30 54 0 99 -19
117 -50 5 -8 27 -32 48 -53 22 -20 62 -81 90 -135 42 -81 52 -112 63 -187 7
-49 13 -78 14 -63 0 15 13 37 29 52 84 77 101 94 116 124 12 23 15 47 12 85
-8 81 -23 148 -36 160 -9 9 -9 5 -1 -18 l11 -30 -22 30 c-24 31 -60 120 -59
145 1 40 -11 79 -22 74 -7 -2 -21 2 -32 11 -17 13 -18 16 -5 25 13 9 13 12 -2
21 -10 5 -18 17 -18 24 0 21 18 19 23 -2 4 -15 5 -15 6 2 2 44 -222 100 -263
66 -12 -10 -21 -6 -50 24 -31 31 -46 38 -118 52 -46 8 -106 13 -134 10 -66 -7
-118 21 -154 82 -17 29 -41 53 -69 68 -43 22 -60 25 -111 16z m-300 -354 c6
-11 11 -53 10 -92 -1 -40 1 -120 4 -180 8 -130 2 -147 -54 -147 -21 0 -41 4
-45 9 -12 21 -17 219 -5 241 9 16 9 25 1 33 -15 15 -14 130 1 145 20 20 76 15
88 -9z m68 -16 c0 -16 5 -40 10 -55 9 -20 8 -29 -3 -38 -30 -25 -43 15 -29 89
8 38 23 41 22 4z m1156 -55 c18 -26 20 -38 6 -38 -5 0 -16 14 -25 30 -18 35
-4 41 19 8z m-2277 -54 c-3 -3 -12 -4 -19 -1 -8 3 -5 6 6 6 11 1 17 -2 13 -5z
m1156 -93 c48 -21 56 -33 64 -99 6 -49 -9 -72 -58 -93 -47 -19 -58 -1 -59 106
-2 103 -1 105 4 105 2 0 24 -9 49 -19z m1121 -26 c9 -14 13 -25 8 -25 -5 0
-14 11 -20 25 -6 14 -10 25 -8 25 2 0 11 -11 20 -25z m-1664 -157 c12 -100 13
-181 2 -174 -5 3 -12 56 -16 118 -3 62 -9 129 -11 148 -4 29 -4 31 5 12 5 -12
14 -59 20 -104z m-123 0 c-3 -7 -5 -2 -5 12 0 14 2 19 5 13 2 -7 2 -19 0 -25z
m-59 -202 c12 -65 7 -156 -9 -156 -17 0 -9 -18 9 -22 22 -6 41 -101 43 -215 2
-85 -7 -80 129 -57 l95 17 -3 80 c-4 79 -3 80 20 73 13 -3 62 -13 109 -22 l87
-16 -5 -39 c-4 -30 -2 -40 11 -45 22 -8 20 -47 -5 -96 -16 -32 -20 -54 -17
-95 6 -73 20 -84 48 -38 21 34 22 44 16 131 l-7 95 38 -6 c74 -13 71 -9 78
-98 4 -45 5 -95 3 -112 -3 -27 -7 -30 -47 -35 -25 -3 -46 -9 -48 -15 -2 -6 54
-9 157 -7 l160 2 0 -55 c0 -51 -2 -56 -27 -68 -38 -16 -42 -24 -36 -65 4 -23
2 -37 -8 -43 -8 -5 -9 -9 -3 -9 10 0 124 -108 124 -117 0 -11 -76 10 -92 24
-16 15 -20 15 -36 -1 -18 -16 -32 -16 -110 0 -12 2 -27 16 -32 29 -5 14 -18
25 -28 25 -10 0 -24 11 -31 24 -7 13 -24 29 -37 35 -23 10 -26 8 -55 -52 -52
-109 -106 -150 -244 -186 -64 -17 -161 -17 -135 0 13 7 12 9 -2 9 -9 0 -25 3
-35 6 -15 5 -15 4 -3 -5 8 -5 11 -13 7 -17 -3 -4 -12 -2 -19 3 -17 14 -49 13
-67 -1 -11 -8 -13 -8 -7 2 4 7 1 12 -8 12 -9 0 -16 -4 -16 -10 0 -5 -19 -3
-41 5 -23 8 -52 15 -66 15 -13 0 -26 6 -29 14 -8 20 -53 29 -70 15 -9 -7 -14
-8 -14 -1 0 5 -8 8 -17 6 -14 -4 -25 10 -47 56 -30 63 -30 69 -7 180 5 26 6
49 0 56 -21 26 -31 549 -10 603 5 14 12 41 15 59 7 42 32 98 63 140 22 29 29
32 81 33 31 0 75 4 97 8 71 15 69 16 83 -53z m39 22 c-3 -8 -6 -5 -6 6 -1 11
2 17 5 13 3 -3 4 -12 1 -19z m1321 -10 c7 -7 12 -23 12 -36 0 -14 14 -47 30
-74 17 -27 30 -61 30 -76 -1 -15 2 -39 6 -54 5 -23 3 -28 -13 -28 -11 0 -33 7
-49 15 -20 9 -53 13 -97 11 -48 -2 -67 1 -67 10 0 6 6 14 14 17 7 3 16 18 19
34 2 15 18 65 33 110 24 67 33 83 50 83 11 0 25 -5 32 -12z m-1185 -65 c-13
-2 -33 -2 -45 0 -13 2 -3 4 22 4 25 0 35 -2 23 -4z m14 -120 c-2 -21 -4 -6 -4
32 0 39 2 55 4 38 2 -18 2 -50 0 -70z m660 10 c-3 -10 -5 -4 -5 12 0 17 2 24
5 18 2 -7 2 -21 0 -30z m-650 -105 c-3 -7 -5 -2 -5 12 0 14 2 19 5 13 2 -7 2
-19 0 -25z m10 -80 c-3 -7 -5 -2 -5 12 0 14 2 19 5 13 2 -7 2 -19 0 -25z m570
-10 c4 -7 9 -45 10 -83 l3 -71 -45 -47 c-25 -27 -45 -53 -45 -58 0 -6 -4 -7
-10 -4 -5 3 -10 47 -10 96 0 86 1 90 25 99 19 7 25 17 25 38 0 16 3 32 7 35
10 11 31 8 40 -5z m690 -217 c18 16 45 -8 41 -35 -2 -16 -11 -21 -35 -23 -24
-1 -30 2 -26 13 3 8 0 14 -6 14 -7 0 -14 -7 -17 -15 -5 -12 -16 -14 -43 -10
-20 3 -52 8 -71 11 l-35 6 25 14 c14 7 41 14 60 14 19 1 44 5 55 10 11 4 24 4
29 -1 6 -5 15 -4 23 2z m398 -1 c3 -5 2 -17 -3 -26 -8 -14 -10 -14 -25 1 -10
9 -15 21 -12 26 8 12 32 12 40 -1z m242 -26 c3 -8 2 -19 -3 -23 -14 -12 -74 8
-74 24 0 21 69 20 77 -1z m-419 -131 c-12 -124 -2 -152 72 -200 76 -50 83 -67
72 -161 -5 -43 -17 -91 -27 -105 -20 -30 -40 -33 -139 -17 -33 5 -99 14 -146
20 -103 14 -213 45 -235 67 -16 15 -15 17 12 28 19 8 39 9 62 3 25 -7 42 -6
65 6 17 8 47 18 67 21 51 8 62 24 52 77 -8 38 -6 44 11 53 12 6 23 26 28 50
10 51 47 145 65 166 7 8 13 18 13 21 0 11 31 80 35 77 1 -2 -2 -50 -7 -106z
m777 97 c10 -17 -17 -90 -34 -90 -18 0 -81 59 -81 76 0 7 6 15 13 17 22 9 96
7 102 -3z m201 2 c6 -4 23 -28 38 -54 27 -46 30 -48 73 -48 37 0 44 -3 41 -17
-5 -26 -62 -29 -93 -5 -18 15 -36 18 -72 15 -26 -2 -68 0 -92 4 -39 7 -44 11
-46 38 -2 17 -4 37 -6 45 -3 12 10 16 61 21 36 3 70 6 75 7 6 1 15 -2 21 -6z
m-456 -27 c10 -13 9 -15 -9 -15 -12 0 -21 6 -21 15 0 8 4 15 9 15 5 0 14 -7
21 -15z m-1254 -90 c-3 -30 -15 -69 -26 -87 l-19 -32 -11 28 c-14 38 -13 41
15 72 14 15 25 35 25 44 0 16 8 30 18 30 3 0 2 -25 -2 -55z m914 -219 c0 -3
-4 -8 -10 -11 -5 -3 -10 -1 -10 4 0 6 5 11 10 11 6 0 10 -2 10 -4z m88 -37
c27 -17 65 -34 83 -39 19 -4 81 -29 138 -54 57 -25 111 -46 120 -46 10 0 26
-7 37 -15 19 -14 19 -14 -2 -15 -11 0 -25 5 -32 12 -18 18 -15 -3 8 -46 10
-22 17 -42 15 -46 -3 -4 -37 -10 -77 -13 -63 -4 -79 -2 -120 19 -51 26 -66 20
-21 -8 25 -15 26 -18 10 -24 -10 -3 -29 -2 -43 4 -27 13 -117 5 -108 -10 3 -5
29 -9 57 -9 29 0 79 0 111 0 52 -1 68 -6 130 -44 l71 -43 6 -63 c4 -35 7 -101
8 -147 1 -82 1 -83 -21 -77 -30 9 -95 51 -133 86 -16 16 -57 40 -89 54 -33 15
-73 37 -89 51 -16 13 -34 24 -41 24 -25 0 -151 62 -178 88 -37 34 -35 48 6 62
19 6 40 18 46 25 9 11 23 13 51 9 25 -4 39 -3 39 4 0 6 -12 12 -27 14 -19 2
-27 8 -24 18 12 49 12 56 0 33 -15 -29 -29 -30 -24 -2 4 19 31 48 46 49 4 0
27 -9 53 -21 26 -11 55 -19 64 -17 9 2 -12 15 -48 29 l-65 25 3 46 c2 25 -3
61 -12 81 -8 21 -11 37 -6 37 5 0 31 -14 58 -31z m-92 -116 c-4 -47 -13 -70
-31 -77 -12 -4 -12 0 0 27 7 18 16 44 20 60 8 39 15 33 11 -10z m-34 -129
c-22 -15 -62 -27 -62 -18 0 5 61 32 75 33 5 1 -1 -6 -13 -15z m-2992 -4 c0 -5
-9 -10 -21 -10 -11 0 -17 5 -14 10 3 6 13 10 21 10 8 0 14 -4 14 -10z m3498
-67 c2 -18 1 -33 -1 -33 -2 0 -28 13 -57 29 -57 31 -52 41 20 38 32 -2 35 -5
38 -34z m-1682 -136 c-19 -14 -13 -42 11 -52 25 -9 37 10 22 36 -11 22 -11 23
4 10 21 -17 22 -50 1 -58 -18 -7 -61 14 -68 33 -9 23 5 44 27 44 19 0 20 -1 3
-13z m262 -22 c19 -15 33 -21 37 -15 17 27 95 2 95 -30 0 -38 -57 -52 -87 -22
-23 23 -113 19 -113 -5 0 -8 -4 -12 -9 -9 -5 4 -8 14 -6 24 2 9 4 29 4 44 1
24 9 31 43 37 3 0 20 -10 36 -24z m-94 -8 c9 -15 6 -22 -13 -38 -16 -13 -33
-18 -47 -15 -16 4 -26 0 -33 -11 -8 -14 -10 -8 -11 28 0 25 3 49 7 53 14 14
86 1 97 -17z m332 -47 c0 -11 -4 -20 -8 -20 -4 0 -8 9 -8 20 0 11 4 20 8 20 4
0 8 -9 8 -20z m148 -15 c-4 -8 -8 -15 -10 -15 -2 0 -4 7 -4 15 0 8 4 15 10 15
5 0 7 -7 4 -15z m656 -83 c22 -28 26 -72 8 -90 -22 -22 -65 -14 -92 19 -29 34
-32 57 -13 81 26 33 67 29 97 -10z m-1769 -87 c6 -27 16 -55 21 -62 6 -7 6
-18 0 -29 -7 -12 -14 4 -29 67 -12 46 -24 93 -28 104 -4 13 -1 11 9 -5 8 -14
20 -47 27 -75z m1882 77 c27 -29 38 -69 27 -98 -9 -22 -14 -25 -38 -19 -42 10
-62 34 -62 75 0 57 39 80 73 42z m60 -39 c-5 -12 -2 -15 13 -11 21 5 49 -16
40 -31 -3 -5 1 -14 9 -21 26 -22 18 -37 -17 -32 -18 2 -39 9 -45 14 -19 15
-16 38 5 39 14 0 14 2 -5 15 -20 15 -22 44 -2 44 4 0 6 -7 2 -17z m254 -235
c-2 -13 -4 -5 -4 17 -1 22 1 32 4 23 2 -10 2 -28 0 -40z m-597 -134 c0 -72 4
-112 14 -127 8 -12 17 -44 21 -71 6 -43 5 -48 -10 -42 -9 3 -25 6 -36 6 -10 0
-19 5 -19 11 0 5 4 8 9 5 4 -3 6 6 3 20 -4 20 -7 23 -14 12 -6 -9 -8 0 -4 27
3 22 8 93 12 157 4 65 11 115 15 112 5 -3 9 -52 9 -110z m-680 -24 c14 -3 34
-26 53 -62 17 -32 29 -59 26 -61 -7 -5 -218 9 -225 15 -11 11 9 81 27 96 11 9
19 22 19 29 0 7 4 13 9 13 5 0 12 16 16 36 l6 37 24 -49 c15 -31 32 -51 45
-54z m820 20 c0 -16 -4 -30 -8 -30 -5 0 -7 14 -4 30 2 17 6 30 8 30 2 0 4 -13
4 -30z m-653 -12 c-3 -8 -6 -5 -6 6 -1 11 2 17 5 13 3 -3 4 -12 1 -19z m194
-80 c23 -22 28 -33 23 -53 -4 -15 -1 -32 6 -40 11 -13 8 -15 -18 -15 -37 0
-51 13 -76 69 -19 40 -19 42 0 76 18 34 19 34 27 13 4 -13 22 -35 38 -50z
m-136 -7 c-3 -5 -1 -12 4 -15 5 -4 12 -2 16 4 12 20 21 10 21 -24 0 -33 -1
-33 -29 -23 -18 6 -25 12 -17 17 8 5 7 11 -4 23 -20 20 -20 27 0 27 8 0 13 -4
9 -9z m-259 -102 c19 -15 15 -48 -8 -63 -22 -13 -35 -1 -18 19 10 12 10 18 0
30 -21 25 -39 17 -42 -17 -4 -46 -32 -44 -36 2 -2 19 -9 39 -15 43 -7 5 14 6
46 4 32 -3 65 -11 73 -18z m118 -35 c5 -18 2 -21 -17 -21 -23 0 -24 2 -14 28
12 30 21 28 31 -7z m101 28 c22 -15 45 -61 34 -68 -6 -3 -15 -2 -21 4 -6 6
-17 8 -24 5 -10 -3 -14 3 -14 19 0 13 -5 29 -12 36 -9 9 -8 12 8 12 10 0 24
-4 29 -8z m125 -22 c0 -5 -4 -10 -10 -10 -5 0 -10 -9 -10 -20 0 -11 -4 -20
-10 -20 -5 0 -10 8 -10 18 0 10 -5 23 -12 30 -9 9 -5 12 20 12 18 0 32 -4 32
-10z m83 -16 c31 -6 37 -10 37 -32 l0 -25 -23 21 c-27 26 -50 28 -67 7 -16
-19 -36 -4 -27 19 7 17 22 19 80 10z m126 -17 c-2 -1 -14 -10 -26 -20 -21 -18
-22 -18 -33 2 -10 20 -8 21 26 21 21 0 35 -1 33 -3z m60 -6 c11 -7 10 -11 -7
-20 -28 -15 -32 -14 -32 9 0 21 16 26 39 11z m61 -26 c-27 -14 -36 -13 -25 4
3 6 16 11 28 11 21 -1 21 -1 -3 -15z m190 -24 c0 -4 -17 -5 -37 -3 -30 4 -34
6 -18 12 21 7 55 2 55 -9z m-886 -21 c26 -1 28 -2 13 -11 -22 -13 -136 -1
-116 13 8 4 27 6 43 3 16 -3 43 -5 60 -5z m81 -10 c4 -6 -5 -10 -20 -10 -15 0
-24 4 -20 10 3 6 12 10 20 10 8 0 17 -4 20 -10z m595 -11 c0 -5 -4 -9 -10 -9
-5 0 -10 7 -10 16 0 8 5 12 10 9 6 -3 10 -10 10 -16z m-485 1 c3 -5 -3 -10
-14 -10 -12 0 -21 5 -21 10 0 6 6 10 14 10 8 0 18 -4 21 -10z m42 -6 c-3 -3
-12 -4 -19 -1 -8 3 -5 6 6 6 11 1 17 -2 13 -5z m548 -4 c3 -5 -1 -10 -10 -10
-9 0 -13 5 -10 10 3 6 8 10 10 10 2 0 7 -4 10 -10z m89 -15 c3 -10 -1 -15 -13
-15 -29 0 -52 11 -45 21 9 15 51 10 58 -6z m-929 -52 c16 -38 21 -38 39 -1 14
27 42 39 33 14 -4 -10 -7 -33 -7 -52 0 -19 -5 -34 -11 -34 -8 0 -9 11 -5 31 5
27 4 30 -9 19 -8 -7 -15 -19 -15 -26 0 -24 -20 -15 -32 14 l-11 27 -7 -30 c-6
-25 -8 -21 -9 23 -1 61 12 67 34 15z m-95 -9 c0 -8 -2 -14 -4 -14 -2 0 -11 -3
-19 -6 -19 -7 -31 24 -16 42 13 16 39 1 39 -22z m290 1 c18 -47 22 -75 12 -75
-6 0 -13 14 -17 30 -4 17 -11 30 -16 30 -5 0 -8 -3 -7 -7 3 -11 -23 -56 -28
-50 -5 4 37 97 43 97 2 0 8 -11 13 -25z m110 -10 c0 -14 5 -25 10 -25 6 0 10
10 10 22 0 17 3 19 12 10 8 -8 8 -15 -1 -26 -9 -11 -10 -20 -1 -38 11 -22 10
-22 -9 2 -16 20 -21 21 -21 8 0 -9 -4 -20 -10 -23 -6 -4 -10 13 -10 44 0 28 5
51 10 51 6 0 10 -11 10 -25z m173 -98 c-7 -11 -23 2 -23 19 0 8 -4 14 -10 14
-5 0 -10 -4 -10 -10 0 -5 -5 -10 -11 -10 -10 0 -7 18 14 70 9 24 10 23 27 -25
9 -27 15 -53 13 -58z m111 87 c9 -3 16 -10 16 -15 0 -4 -6 -6 -14 -3 -10 4
-15 -8 -21 -41 -8 -59 -20 -50 -16 12 2 39 0 45 -14 40 -9 -4 -14 -3 -10 3 7
11 35 13 59 4z m91 -40 c0 -10 7 -19 15 -19 8 0 14 8 14 18 -1 9 5 17 13 17
10 0 13 -6 9 -16 -3 -9 -6 -31 -6 -50 0 -19 -4 -34 -10 -34 -5 0 -10 11 -10
25 0 16 -6 25 -15 25 -8 0 -15 -9 -15 -20 0 -11 -4 -20 -10 -20 -5 0 -10 23
-10 51 0 36 4 49 12 47 7 -3 13 -13 13 -24z m108 -33 c-3 -25 -1 -41 7 -46 17
-11 31 15 27 48 -2 17 0 24 5 19 15 -15 5 -64 -14 -76 -24 -15 -41 4 -40 43 1
28 8 51 17 51 2 0 1 -17 -2 -39z m177 -63 c0 -5 -4 -8 -9 -8 -9 0 -51 65 -51
78 1 9 59 -61 60 -70z m7 50 c-3 -8 -6 -5 -6 6 -1 11 2 17 5 13 3 -3 4 -12 1
-19z m-2667 2 c11 -7 1 -9 -35 -9 -40 1 -45 3 -25 9 35 11 43 11 60 0z m2255
-69 c55 -11 136 -31 180 -43 73 -21 80 -25 83 -50 2 -18 10 -28 24 -30 18 -2
22 -11 23 -49 l2 -46 -55 9 c-65 10 -79 18 -34 18 18 0 32 4 32 9 0 12 -117
47 -215 65 -44 9 -96 20 -115 26 -19 6 -73 13 -119 15 -88 5 -101 11 -101 53
0 13 -6 22 -16 22 -10 0 -12 -5 -7 -12 4 -7 8 -17 9 -23 1 -5 5 -18 9 -27 6
-16 0 -18 -61 -19 -38 -1 -80 -4 -94 -8 -25 -8 -25 -8 10 -24 l35 -15 -31 -1
c-17 -1 -52 2 -78 5 -45 7 -46 7 -32 29 9 14 11 27 5 36 -15 24 -10 29 31 29
36 0 40 3 40 24 0 22 5 25 48 29 112 10 329 -1 427 -22z m-29 -142 c3 -6 2
-15 -4 -21 -6 -6 -11 -2 -15 11 -5 22 7 29 19 10z m-49 -31 c-3 -7 -5 -2 -5
12 0 14 2 19 5 13 2 -7 2 -19 0 -25z m73 -26 c0 -5 -13 -7 -30 -4 -16 2 -30 6
-30 8 0 2 14 4 30 4 17 0 30 -4 30 -8z m659 -139 c1 -7 -6 -13 -15 -13 -11 0
-14 5 -10 16 3 9 6 25 7 37 1 20 2 20 9 -3 4 -14 8 -31 9 -37z"/>
<path d="M940 3069 c0 -4 35 -7 78 -7 61 0 71 2 47 9 -35 10 -125 9 -125 -2z"/>
<path d="M1188 3073 c7 -3 16 -2 19 1 4 3 -2 6 -13 5 -11 0 -14 -3 -6 -6z"/>
<path d="M917 2903 c-13 -12 -7 -23 17 -33 27 -10 32 -33 35 -193 1 -65 -2
-104 -10 -113 -18 -22 -8 -25 62 -17 49 5 57 8 34 13 -24 4 -30 11 -37 45 -5
22 -7 89 -6 150 l3 110 47 3 c57 4 54 10 63 -165 6 -118 6 -122 -17 -137 l-22
-16 32 0 c46 0 49 18 37 233 l-8 127 -112 0 c-61 0 -115 -3 -118 -7z"/>
<path d="M1189 2583 c-13 -16 -12 -17 4 -4 9 7 17 15 17 17 0 8 -8 3 -21 -13z"/>
<path d="M1750 2511 c0 -12 5 -21 10 -21 6 0 10 6 10 14 0 8 -4 18 -10 21 -5
3 -10 -3 -10 -14z"/>
<path d="M1240 2419 c0 -5 5 -7 10 -4 6 3 10 8 10 11 0 2 -4 4 -10 4 -5 0 -10
-5 -10 -11z"/>
<path d="M1773 2422 c-26 -4 -27 -6 -13 -32 8 -14 18 -17 50 -13 27 4 47 1 65
-11 23 -15 27 -15 50 0 44 28 28 48 -40 51 -33 2 -67 4 -75 6 -8 1 -25 1 -37
-1z"/>
<path d="M1950 2318 c-35 -20 -35 -20 -5 -13 17 3 37 13 45 21 19 19 2 16 -40
-8z"/>
<path d="M1190 2220 c6 -11 13 -20 16 -20 2 0 0 9 -6 20 -6 11 -13 20 -16 20
-2 0 0 -9 6 -20z"/>
<path d="M2094 1745 c-8 -21 4 -35 32 -35 28 0 44 28 23 41 -21 13 -49 11 -55
-6z"/>
<path d="M2213 1729 c-18 -18 -3 -39 27 -39 36 0 49 19 25 37 -23 16 -37 17
-52 2z"/>
<path d="M1987 1754 c-14 -14 -7 -43 12 -49 29 -9 52 5 49 29 -3 21 -46 35
-61 20z"/>
<path d="M3140 1591 c0 -5 -3 -16 -6 -25 -5 -12 0 -16 20 -16 29 0 30 3 16 31
-11 20 -30 26 -30 10z"/>
<path d="M2528 557 c-6 -16 1 -37 13 -37 12 0 12 37 0 44 -5 3 -11 0 -13 -7z"/>
<path d="M2590 557 c0 -16 13 -32 28 -34 21 -5 13 34 -8 40 -12 3 -20 0 -20
-6z"/>
<path d="M2420 543 c0 -10 4 -14 8 -8 4 6 11 13 16 18 5 4 2 7 -7 7 -10 0 -17
-8 -17 -17z"/>
<path d="M2560 548 c0 -9 5 -20 10 -23 13 -8 13 5 0 25 -8 13 -10 13 -10 -2z"/>
<path d="M2644 544 c3 -9 6 -18 6 -20 0 -2 9 -4 20 -4 23 0 26 10 8 28 -18 18
-41 15 -34 -4z"/>
<path d="M2773 515 c0 -14 3 -25 8 -25 5 0 9 11 9 25 0 14 -4 25 -9 25 -5 0
-8 -11 -8 -25z"/>
<path d="M2705 520 c3 -5 8 -10 11 -10 2 0 4 5 4 10 0 6 -5 10 -11 10 -5 0 -7
-4 -4 -10z"/>
<path d="M2817 510 c3 -11 7 -20 9 -20 2 0 4 9 4 20 0 11 -4 20 -9 20 -5 0 -7
-9 -4 -20z"/>
<path d="M2850 510 c0 -5 7 -10 15 -10 8 0 15 5 15 10 0 6 -7 10 -15 10 -8 0
-15 -4 -15 -10z"/>
<path d="M2897 503 c-11 -10 -8 -43 3 -43 12 0 31 35 23 44 -8 8 -18 8 -26 -1z"/>
<path d="M2940 476 c0 -16 6 -26 15 -26 8 0 15 5 15 11 0 6 -7 17 -15 25 -13
14 -15 13 -15 -10z"/>
<path d="M2850 479 c0 -5 5 -7 10 -4 6 3 10 8 10 11 0 2 -4 4 -10 4 -5 0 -10
-5 -10 -11z"/>
<path d="M0 4018 l0 -94 61 6 c80 8 96 33 63 102 -19 40 -52 66 -94 74 l-30 7
0 -95z"/>
<path d="M4362 4048 c5 -15 28 -23 28 -10 0 5 -7 13 -16 16 -10 4 -14 1 -12
-6z"/>
<path d="M3455 4020 c3 -5 10 -10 16 -10 5 0 9 5 9 10 0 6 -7 10 -16 10 -8 0
-12 -4 -9 -10z"/>
<path d="M4624 4003 c-98 -3 -145 -7 -150 -16 -11 -15 -2 -512 9 -523 10 -10
307 -13 313 -3 2 4 7 125 11 269 5 218 4 263 -8 271 -8 5 -18 8 -24 7 -5 -1
-74 -4 -151 -5z m-26 -95 c15 -15 16 -112 1 -140 -8 -14 -8 -23 0 -31 7 -7 11
-57 11 -128 l0 -117 -27 -9 c-43 -14 -70 -5 -78 24 -9 37 -4 205 7 226 6 12 5
23 -3 33 -16 19 -7 133 12 145 20 13 63 11 77 -3z m152 -14 c15 -39 12 -101
-6 -118 -17 -17 -51 -21 -72 -7 -14 9 -21 118 -8 139 4 6 23 12 42 12 28 0 36
-5 44 -26z m0 -163 c15 -29 13 -231 -2 -235 -88 -27 -93 -21 -89 121 1 77 6
120 14 125 23 15 66 8 77 -11z"/>
<path d="M3592 3973 l-44 -4 7 -262 c3 -144 8 -263 10 -265 2 -2 72 -3 156 -3
108 1 156 5 161 14 4 7 7 127 5 267 l-2 255 -125 1 c-69 0 -145 -1 -168 -3z
m106 -157 c2 -44 -1 -72 -9 -76 -8 -6 -8 -13 0 -29 7 -13 11 -63 9 -133 l-3
-113 -45 0 -45 0 -3 119 c-1 68 2 124 7 129 6 6 4 18 -6 34 -12 18 -14 36 -9
75 4 29 10 56 13 60 2 5 24 8 46 6 l42 -3 3 -69z m148 49 c3 -13 3 -46 0 -72
-3 -27 -6 -55 -5 -63 0 -8 2 -71 2 -140 l2 -125 -41 -3 c-69 -5 -67 -11 -55
268 1 8 -2 36 -5 63 -3 26 -3 59 0 72 6 22 12 25 51 25 39 0 45 -3 51 -25z"/>
<path d="M290 3949 c0 -5 5 -7 10 -4 6 3 10 8 10 11 0 2 -4 4 -10 4 -5 0 -10
-5 -10 -11z"/>
<path d="M18 3893 c-15 -4 -18 -16 -18 -74 0 -39 4 -69 10 -69 5 0 9 -10 9
-22 -1 -13 1 -30 5 -39 5 -10 1 -19 -8 -22 -13 -5 -16 -22 -16 -77 0 -67 1
-71 20 -65 12 4 20 2 20 -5 0 -7 -9 -14 -19 -17 -18 -5 -19 -19 -20 -338 -1
-338 1 -362 35 -334 9 7 18 8 23 3 12 -12 21 -273 10 -280 -20 -12 -7 -24 27
-24 30 0 35 3 29 18 -14 37 -29 260 -18 288 3 10 21 14 58 14 l52 0 7 -61 c4
-33 6 -102 5 -152 -1 -51 2 -94 7 -97 15 -8 17 36 9 198 l-7 152 -79 0 c-63 0
-81 3 -86 16 -9 24 17 64 46 70 14 3 34 8 43 10 9 3 27 24 40 47 20 36 29 43
63 47 52 7 65 16 65 45 0 42 -17 70 -54 90 -26 14 -36 26 -36 45 -1 14 -7 39
-14 55 -11 25 -10 34 2 53 12 18 13 33 4 80 -6 31 -12 116 -13 187 -1 72 -2
159 -3 195 l-1 65 -90 2 c-50 0 -98 -1 -107 -4z m158 -56 c3 -8 6 -33 7 -58 2
-41 0 -44 -33 -56 -30 -10 -32 -12 -10 -13 48 -1 54 -12 57 -114 l4 -96 -50 0
c-27 0 -53 5 -57 11 -3 6 8 25 25 43 40 41 39 61 -4 88 -37 24 -42 37 -24 55
9 9 8 16 -5 28 -19 19 -22 95 -4 113 16 16 87 15 94 -1z m-96 -692 c0 -8 -4
-15 -10 -15 -5 0 -10 7 -10 15 0 8 5 15 10 15 6 0 10 -7 10 -15z m-34 -194
c-8 -13 -36 -15 -36 -3 0 4 5 13 12 20 14 14 34 0 24 -17z"/>
<path d="M4242 3878 c-7 -7 -12 -20 -12 -29 0 -35 -43 -154 -60 -166 -12 -8
-19 -32 -24 -79 -8 -77 -27 -154 -38 -154 -4 0 -11 8 -17 17 -5 10 -13 15 -17
10 -23 -22 1 -162 36 -209 45 -62 13 -88 -53 -44 -19 13 -38 22 -40 19 -3 -2
2 -24 11 -49 16 -44 10 -71 -11 -43 -16 21 -55 41 -67 34 -12 -7 -2 -54 15
-75 28 -33 42 -85 37 -145 -3 -46 0 -64 11 -73 9 -8 72 -15 177 -19 133 -5
163 -4 171 8 12 20 11 103 -3 172 -11 53 -11 60 5 72 9 7 17 24 17 38 0 14 5
29 10 32 14 8 13 45 -1 45 -6 0 -22 -9 -36 -20 -64 -50 -70 2 -8 70 37 41 54
130 24 130 -5 0 -9 13 -9 29 0 20 -6 30 -19 34 -16 4 -20 18 -25 103 -6 90
-11 128 -36 247 -9 47 -22 61 -38 45z m-168 -783 c-4 -8 -10 -12 -15 -9 -14 8
-10 24 6 24 9 0 12 -6 9 -15z"/>
<path d="M3075 3133 c-3 -21 -10 -54 -15 -74 -12 -44 -13 -109 -2 -109 5 0 16
15 25 33 9 17 21 39 27 47 5 8 18 34 29 57 l19 43 -28 20 c-39 28 -48 25 -55
-17z"/>
<path d="M4628 3153 c-27 -2 -48 -8 -48 -13 0 -5 52 -7 116 -5 123 5 170 15
66 15 -33 0 -66 1 -74 3 -7 2 -34 2 -60 0z"/>
<path d="M4865 3150 c-28 -7 -27 -8 13 -9 23 0 42 4 42 9 0 11 -11 11 -55 0z"/>
<path d="M3650 3130 c-39 -5 -42 -7 -20 -13 14 -4 54 -5 90 -3 36 2 83 5 105
7 l40 2 -50 7 c-58 10 -103 10 -165 0z"/>
<path d="M3298 3123 c12 -2 30 -2 40 0 9 3 -1 5 -23 4 -22 0 -30 -2 -17 -4z"/>
<path d="M3380 3120 c0 -5 10 -10 23 -10 18 0 19 2 7 10 -19 13 -30 13 -30 0z"/>
<path d="M4618 2973 c-136 -4 -139 -5 -131 -60 6 -38 20 -44 25 -11 2 16 12
24 38 30 48 10 67 2 79 -33 12 -34 34 -35 39 -1 5 31 26 44 69 40 28 -2 41 -9
48 -25 16 -37 35 -28 35 16 0 41 -13 53 -53 49 -12 -1 -79 -4 -149 -5z"/>
<path d="M3566 2947 c-11 -8 -16 -19 -12 -25 6 -11 85 -16 171 -11 74 3 122 2
143 -6 22 -7 23 -5 20 21 l-3 29 -150 3 c-115 2 -155 -1 -169 -11z"/>
<path d="M0 2480 c0 -47 3 -58 14 -54 21 8 25 26 19 73 -4 25 -11 41 -19 41
-10 0 -14 -16 -14 -60z"/>
<path d="M23 2323 c-19 -4 -23 -11 -23 -43 0 -33 4 -41 32 -54 17 -9 46 -16
64 -16 56 0 134 -21 134 -35 0 -19 41 -30 51 -14 4 7 5 17 3 21 -3 4 0 8 5 8
19 0 12 39 -9 50 -11 6 -21 7 -21 3 -1 -4 -4 5 -8 22 -8 37 -34 44 -71 17 -15
-11 -38 -22 -51 -24 -20 -2 -24 1 -25 22 0 14 -1 31 -2 38 -2 12 -33 14 -79 5z"/>
<path d="M57 2074 c-13 -13 -7 -24 14 -24 11 0 19 5 17 12 -5 14 -22 21 -31
12z"/>
<path d="M105 2060 c-3 -6 1 -13 10 -16 19 -8 30 0 20 15 -8 14 -22 14 -30 1z"/>
<path d="M215 2060 c-9 -15 2 -28 40 -45 31 -15 35 -15 59 0 28 19 36 41 10
31 -8 -3 -28 1 -44 9 -34 17 -56 19 -65 5z"/>
<path d="M140 2012 c0 -5 7 -13 16 -16 10 -4 14 -1 12 6 -5 15 -28 23 -28 10z"/>
<path d="M4072 1778 c3 -9 29 -14 84 -15 90 -3 75 10 -25 21 -50 6 -62 4 -59
-6z"/>
<path d="M4485 1690 c-285 -6 -302 -7 -340 -28 -33 -19 -49 -21 -95 -16 -30 3
-66 13 -79 21 -15 9 -60 17 -123 21 l-100 5 7 -44 c9 -52 15 -65 24 -50 12 19
252 29 774 30 l367 2 0 34 0 35 -67 -2 c-38 -1 -203 -4 -368 -8z"/>
<path d="M4376 1540 l7 -30 -306 0 c-334 0 -317 3 -317 -60 0 -59 0 -59 143
-55 141 4 438 23 473 30 12 3 24 14 27 25 6 25 11 25 340 28 l177 2 0 43 0 43
-275 2 -275 3 6 -31z"/>
<path d="M3662 1345 c0 -16 2 -22 5 -12 2 9 2 23 0 30 -3 6 -5 -1 -5 -18z"/>
<path d="M4030 1131 c0 -5 5 -11 12 -13 6 -2 9 -11 5 -20 -6 -18 -87 -44 -192
-62 -60 -10 -70 -15 -68 -32 6 -61 35 -220 42 -227 4 -4 18 4 31 18 27 29 55
32 69 8 8 -15 23 -17 114 -15 117 4 150 -6 145 -41 -3 -21 -7 -22 -133 -22
-71 0 -149 4 -172 9 l-43 9 0 -40 c0 -21 10 -67 21 -102 17 -49 25 -61 38 -56
30 12 102 15 121 5 13 -7 19 -6 24 5 3 9 18 15 39 15 24 0 42 9 66 32 25 24
42 32 72 33 21 1 41 4 45 8 8 7 -14 31 -38 39 -13 5 -18 26 -24 88 -7 86 -22
108 -65 95 -41 -13 -49 9 -47 134 1 64 -2 122 -6 129 -8 14 -56 16 -56 3z"/>
<path d="M4323 653 c-12 -30 54 -46 76 -19 15 18 1 28 -41 32 -19 1 -32 -4
-35 -13z"/>
<path d="M4498 629 c-16 -9 -26 -39 -14 -39 2 0 12 -3 22 -7 11 -4 15 -3 10 5
-6 10 9 25 29 28 6 0 16 2 23 2 6 1 12 7 12 12 0 13 -60 12 -82 -1z"/>
<path d="M4685 620 c-3 -5 1 -10 9 -10 8 0 18 5 21 10 3 6 -1 10 -9 10 -8 0
-18 -4 -21 -10z"/>
<path d="M4763 623 c9 -2 23 -2 30 0 6 3 -1 5 -18 5 -16 0 -22 -2 -12 -5z"/>
<path d="M1220 606 c0 -2 9 -6 20 -9 11 -3 20 -1 20 4 0 5 -9 9 -20 9 -11 0
-20 -2 -20 -4z"/>
<path d="M4215 560 c3 -5 13 -10 21 -10 8 0 12 5 9 10 -3 6 -13 10 -21 10 -8
0 -12 -4 -9 -10z"/>
<path d="M4785 559 c-8 -12 14 -31 30 -26 6 2 10 10 10 18 0 17 -31 24 -40 8z"/>
<path d="M4310 546 c0 -8 5 -18 10 -21 6 -3 10 3 10 14 0 12 -4 21 -10 21 -5
0 -10 -6 -10 -14z"/>
<path d="M1 494 c0 -11 3 -14 6 -6 3 7 2 16 -1 19 -3 4 -6 -2 -5 -13z"/>
<path d="M4511 496 c-9 -10 -9 -16 -1 -21 17 -10 37 12 24 25 -8 8 -15 6 -23
-4z"/>
<path d="M4063 484 c-8 -23 21 -68 46 -72 20 -3 26 6 21 37 -4 33 -57 60 -67
35z"/>
<path d="M3900 483 c1 -5 6 -18 14 -31 11 -21 14 -22 26 -7 11 13 10 18 -6 30
-21 16 -34 19 -34 8z"/>
<path d="M4265 459 c-4 -6 -13 -8 -21 -5 -20 8 -25 -8 -10 -29 12 -17 17 -17
59 -4 33 9 47 19 47 31 0 14 -8 18 -34 18 -19 0 -38 -5 -41 -11z"/>
<path d="M4554 440 c-28 -11 -35 -22 -25 -39 6 -10 10 -9 14 3 5 12 14 15 31
10 31 -7 75 14 55 27 -17 11 -47 10 -75 -1z"/>
<path d="M4460 421 c0 -6 5 -13 10 -16 6 -3 10 1 10 9 0 9 -4 16 -10 16 -5 0
-10 -4 -10 -9z"/>
<path d="M4700 410 c0 -5 5 -10 10 -10 6 0 10 5 10 10 0 6 -4 10 -10 10 -5 0
-10 -4 -10 -10z"/>
<path d="M4436 357 c-18 -13 -18 -14 0 -21 22 -8 124 3 124 14 0 22 -96 27
-124 7z"/>
<path d="M4181 351 c-23 -15 4 -21 94 -20 64 0 84 4 76 12 -13 13 -151 19
-170 8z"/>
<path d="M4380 352 c0 -12 19 -26 26 -19 2 2 -2 10 -11 17 -9 8 -15 8 -15 2z"/>
<path d="M4780 340 c19 -13 30 -13 30 0 0 6 -10 10 -22 10 -19 0 -20 -2 -8
-10z"/>
<path d="M4850 340 c0 -4 9 -10 20 -13 11 -3 20 -2 20 3 0 4 -9 10 -20 13 -11
3 -20 2 -20 -3z"/>
<path d="M4100 330 c0 -5 4 -10 9 -10 6 0 13 5 16 10 3 6 -1 10 -9 10 -9 0
-16 -4 -16 -10z"/>
<path d="M4677 333 c-22 -21 16 -60 42 -43 10 6 9 12 -8 29 -23 23 -25 24 -34
14z"/>
<path d="M3960 301 c0 -6 5 -13 10 -16 6 -3 10 1 10 9 0 9 -4 16 -10 16 -5 0
-10 -4 -10 -9z"/>
<path d="M1348 283 c7 -3 16 -2 19 1 4 3 -2 6 -13 5 -11 0 -14 -3 -6 -6z"/>
<path d="M4608 266 c-39 -29 -11 -43 73 -38 16 1 29 -4 33 -13 9 -25 45 -18
56 11 6 14 10 27 10 29 0 2 -16 -1 -37 -7 -30 -8 -38 -7 -45 6 -7 13 -13 14
-29 6 -15 -9 -21 -7 -25 5 -7 18 -14 18 -36 1z"/>
<path d="M4480 250 c0 -5 7 -10 15 -10 8 0 15 5 15 10 0 6 -7 10 -15 10 -8 0
-15 -4 -15 -10z"/>
<path d="M4295 240 c3 -5 8 -10 11 -10 2 0 4 5 4 10 0 6 -5 10 -11 10 -5 0 -7
-4 -4 -10z"/>
<path d="M3980 200 c0 -11 7 -21 15 -21 57 -5 75 -3 75 9 0 14 -8 17 -57 26
-28 5 -33 3 -33 -14z"/>
<path d="M4145 171 c-3 -5 -1 -12 5 -16 5 -3 10 1 10 9 0 18 -6 21 -15 7z"/>
<path d="M4235 160 c20 -22 49 -27 42 -7 -2 6 -11 11 -21 9 -9 -2 -16 2 -16 8
0 5 -5 10 -12 10 -6 0 -3 -9 7 -20z"/>
<path d="M4875 170 c3 -5 8 -10 11 -10 2 0 4 5 4 10 0 6 -5 10 -11 10 -5 0 -7
-4 -4 -10z"/>
<path d="M4028 138 c-23 -6 -38 -16 -38 -25 0 -9 6 -13 15 -10 8 4 17 2 20 -4
9 -13 76 -4 86 12 13 21 11 26 -13 33 -26 7 -22 7 -70 -6z"/>
<path d="M4785 128 c11 -34 18 -38 39 -23 25 19 14 45 -19 45 -23 0 -25 -3
-20 -22z"/>
<path d="M4460 115 c0 -9 5 -15 11 -13 6 2 11 8 11 13 0 5 -5 11 -11 13 -6 2
-11 -4 -11 -13z"/>
<path d="M4525 120 c-3 -5 -1 -10 4 -10 6 0 11 5 11 10 0 6 -2 10 -4 10 -3 0
-8 -4 -11 -10z"/>
<path d="M4846 71 c3 -16 1 -32 -5 -35 -20 -13 -81 -16 -81 -5 0 6 -9 9 -20 6
-10 -3 -25 2 -31 10 -9 10 -23 13 -47 8 -26 -5 -37 -2 -47 11 -11 16 -16 17
-41 5 -27 -12 -28 -14 -11 -26 10 -7 26 -11 37 -8 12 3 20 -2 25 -16 6 -20 13
-21 146 -19 146 1 160 6 119 43 -11 10 -22 26 -25 36 -10 30 -25 22 -19 -10z"/>
<path d="M75 80 c-3 -5 1 -10 9 -10 9 0 16 5 16 10 0 6 -4 10 -9 10 -6 0 -13
-4 -16 -10z"/>
<path d="M4254 68 c9 -13 21 -33 28 -45 10 -21 18 -23 90 -23 86 0 92 6 66 63
-16 33 -23 34 -44 2 -18 -28 -34 -33 -34 -11 0 21 -19 30 -34 17 -10 -9 -15
-8 -20 5 -5 14 -9 14 -23 3 -13 -11 -17 -11 -20 -1 -3 6 -9 12 -15 12 -6 0 -3
-10 6 -22z"/>
<path d="M4020 40 c0 -12 41 -40 59 -40 11 0 11 4 -3 19 -19 21 -56 34 -56 21z"/>
<path d="M4488 3 c6 -2 18 -2 25 0 6 3 1 5 -13 5 -14 0 -19 -2 -12 -5z"/>
</g>
</svg>
